<svg width="74" height="48" viewBox="0 0 74 48" fill="none" xmlns="http://www.w3.org/2000/svg">
<path d="M29.8056 21.4367C33.891 19.4505 36.0236 16.4451 36.0236 11.7672C36.0236 2.54194 29.266 0.294434 21.4677 0.294434H0V46.6035H22.0715C30.3451 46.6035 38.1177 42.5658 38.1177 33.1577C38.1177 27.3429 35.4069 23.0439 29.8056 21.4367ZM10.008 8.19991H19.3993C23.0094 8.19991 26.2597 9.23219 26.2597 13.492C26.2597 17.4251 23.7288 19.0062 20.1573 19.0062H10.008V8.19991ZM20.7097 38.7373H10.008V25.984H20.9153C25.3219 25.984 28.1097 27.8525 28.1097 32.5958C28.1097 37.2738 24.7823 38.7373 20.7097 38.7373ZM66.767 7.28522H48.3056V2.72488H66.767V7.28522ZM74 30.3222C74 20.4044 68.2958 12.133 57.9538 12.133C47.9073 12.133 41.0854 19.8164 41.0854 29.8779C41.0854 40.3183 47.5476 47.479 57.9538 47.479C65.8292 47.479 70.9295 43.8725 73.3833 36.2023H65.3924C64.5316 39.0639 60.9858 40.5797 58.2365 40.5797C52.9306 40.5797 50.1427 37.4175 50.1427 32.047H73.9229C73.9615 31.4982 74 30.9102 74 30.3222ZM50.1556 26.2453C50.451 21.8417 53.3288 19.0846 57.6712 19.0846C62.2191 19.0846 64.5059 21.8025 64.8913 26.2453H50.1556Z" fill="#3C19FE"/>
</svg>
