<svg width="162" height="48" viewBox="0 0 162 48" fill="none" xmlns="http://www.w3.org/2000/svg">
<path d="M155.277 47.242C156.159 47.2428 157.033 47.0743 157.848 46.7459C158.663 46.4175 159.404 45.9357 160.028 45.3281C160.652 44.7204 161.148 43.9988 161.486 43.2044C161.825 42.41 161.999 41.5584 162 40.6981C162.001 39.8379 161.828 38.986 161.491 38.1909C161.155 37.3958 160.661 36.6732 160.038 36.0644C159.415 35.4555 158.675 34.9723 157.86 34.6423C157.046 34.3123 156.173 34.142 155.29 34.1411C153.509 34.1394 151.8 34.8279 150.539 36.0551C149.279 37.2823 148.569 38.9477 148.568 40.685C148.566 42.4223 149.272 44.0891 150.53 45.3187C151.788 46.5484 153.496 47.2402 155.277 47.242ZM148.554 22.8507H142.817C139.131 22.8507 137.146 25.5499 137.146 30.0397V46.2742H126.279V22.8507H121.662C117.97 22.8507 115.992 25.5499 115.992 30.0397V46.2742H105.125V14.1871H115.992V19.0587C117.774 15.2799 120.217 14.1871 123.842 14.1871H137.153V19.0587C138.935 15.2799 141.372 14.1871 144.997 14.1871H148.554V22.8507ZM102.749 32.7323H80.0752C80.6693 36.3268 82.9778 38.3808 86.8658 38.3808C89.7682 38.3808 91.8068 37.2287 92.4683 35.1747L102.087 37.8081C99.7178 43.3907 93.852 46.7877 86.8658 46.7877C75.0667 46.7877 69.66 37.8673 69.66 30.2306C69.66 22.7257 74.4053 13.7394 86.1975 13.7394C98.7255 13.7394 102.877 22.8507 102.877 29.5921C102.877 31.0667 102.809 32.0279 102.742 32.7323H102.749ZM92.205 26.5111C91.935 23.7461 89.8965 21.1786 86.2042 21.1786C82.7752 21.1786 80.7367 22.6598 80.0752 26.5111H92.205ZM50.679 46.2676H60.237L72.1643 14.1805H61.2293L55.4243 32.8574L49.4977 14.1805H38.61L50.6722 46.2676H50.679ZM6.129 46.2676H16.9425V22.8442H27.2295V46.2676H37.9688V14.1805H16.9425V12.1923C16.9425 10.0067 18.5287 8.66366 21.033 8.66366H27.2295V0H19.2375C11.394 0 6.12225 4.68733 6.12225 11.5537V14.1871H0V22.8507H6.129V46.2742V46.2676Z" fill="#3C19FE"/>
</svg>
