<svg xmlns="http://www.w3.org/2000/svg" xmlns:xlink="http://www.w3.org/1999/xlink" viewBox="0 0 595.28 841.89"><defs><style>.cls-1,.cls-6,.cls-8,.cls-9{fill:#e17b65;}.cls-2{isolation:isolate;}.cls-12,.cls-3{fill:#819bd0;}.cls-4{fill:#e27351;}.cls-5{fill:#4c6fb5;}.cls-6{opacity:0.5;}.cls-12,.cls-15,.cls-16,.cls-6,.cls-8,.cls-9{mix-blend-mode:multiply;}.cls-7{clip-path:url(#clip-path);}.cls-8{opacity:0.4;}.cls-10{fill:#181c38;}.cls-11{fill:#fff;}.cls-13{fill:#231f20;}.cls-14{fill:#3e53a4;}.cls-15{fill:#e2d6d3;}</style><clipPath id="clip-path"><path class="cls-1" d="M364.51,379.78c-3.39,12.78-12.84,16.57-21.66,18.82a2.71,2.71,0,0,1-.32.07c-1.26,2.42-2.64,4.82-4.15,7.17q-1.41,2.22-3,4.34a98.06,98.06,0,0,1-10.21,12c-7.24,8.15-16.39,14-26.63,16.19-.3,0-.63.11-.92.17-.61.1-1.17.28-1.78.35-.42.07-.81,0-1.2.09s-.68,0-1,.06c-.81,0-1.6,0-2.4,0a19,19,0,0,1-2.34-.24c-.34,0-.68-.09-1-.13s-.82-.08-1.23-.17c-.58-.14-1.14-.34-1.72-.52-.3-.07-.62-.16-.9-.25-10-3-18.61-9.6-25.15-18.33a87.26,87.26,0,0,1-7.24-9.72c-.23-.31-.43-.64-.61-.94-1.09-1.68-2.1-3.38-3.05-5.1a93.32,93.32,0,0,1-4.39-9.08c-.28-.09-.6-.2-.89-.32-8.4-2.95-17.19-7.58-19.41-20.33-1.84-10.38,1.43-23.86,9.71-24.25a11.91,11.91,0,0,1,6.18,1.7,17.23,17.23,0,0,1,1.73,1c0-.09.05-.17.07-.26,4.36-17,13.81-34.83,25-46.92a37,37,0,0,1,15.88-12.16,25.41,25.41,0,0,1,9.34-2.47,55.13,55.13,0,0,1,6.3,0,53.75,53.75,0,0,1,6.28.48,26.06,26.06,0,0,1,9.1,3.25,36.81,36.81,0,0,1,14.79,13.43c9.66,12.36,17.27,29.77,20.52,46.3v0c.19.92.37,1.86.52,2.78.2-.1.36-.21.57-.31h0a13.15,13.15,0,0,1,7.53-1.77C365.11,355.88,367.23,369.58,364.51,379.78Z"/></clipPath></defs><g class="cls-2"><g id="Layer_1" data-name="Layer 1"><ellipse class="cls-3" cx="295.13" cy="445.21" rx="72.02" ry="22.25"/><path class="cls-3" d="M380.52,476.41c-4.47,11.4-12.93,21-23.26,27.63,0,0,0,0-.07,0a64.94,64.94,0,0,1-7.35,4.06c-13.64,6.42-29.22,8.18-44.19,6.35a23.16,23.16,0,0,1-8.68-2.42,10.37,10.37,0,0,1-2-1.5,42,42,0,0,1-10.7,3.92c-15,1.83-30.54.07-44.19-6.35a65.14,65.14,0,0,1-10-5.84s0,0,0,0a58.05,58.05,0,0,1-20.64-25.87c-1.47-3.73-2.49-7.74-2-11.71a12.66,12.66,0,0,1,1.12-3.8,6.14,6.14,0,0,1,.48-1v0a10.24,10.24,0,0,1,5-4.56,33.53,33.53,0,0,1,4.54-1.15,10.67,10.67,0,0,0,1.39-.43c1.93-.7,3.77-2.39,3.62-4.43a7.69,7.69,0,0,0-.48-1.84h0a5.26,5.26,0,0,1-.32-1.3,4.35,4.35,0,0,1,2.69-4,13,13,0,0,1,5-.91l33.4-1.41,4.82-.2.28-.11c1.5-.5,8.74-2.62,9.46,4.3,1,9.51,42.76-4.19,42.76-4.19l4.47.19,5.34.22,28.41,1.2a12.94,12.94,0,0,1,5,.91,4.35,4.35,0,0,1,2.69,4c-.08,1.09-.71,2.07-.8,3.15a2.35,2.35,0,0,0,0,.65c.22,1.76,1.87,3.15,3.57,3.78a14.83,14.83,0,0,0,2.21.61,23.49,23.49,0,0,1,3.73,1,10.13,10.13,0,0,1,4.82,4.3,11.3,11.3,0,0,1,.87,1.74,13.3,13.3,0,0,1,.87,3.3C383,468.67,382,472.68,380.52,476.41Z"/><path class="cls-4" d="M222.3,536.89l-6.42,22.37H180.46c-14.57,0-25.34-14.09-20.93-28,0-.09.05-.18.08-.26a.08.08,0,0,1,0-.08c8.49-25.89,18.48-46,30.56-58.33,7-7.23,14.81-11.8,23.41-13.27h0a5.44,5.44,0,0,1,.93-.15.15.15,0,0,1,.11,0v0l.15,1.57Z"/><path class="cls-3" d="M434,559.26H161.27A9,9,0,0,1,152.94,547c8.51-21.43,22.85-64.44,34.64-74.45a61.11,61.11,0,0,1,11.18-7.48,75.58,75.58,0,0,1,9.8-4.19l.57-.2a100.77,100.77,0,0,1,11-3c2.49-.53,5-1,7.53-1.39,5.36-.83,10.76-1.39,16.1-1.85,8.46-.73,16.93-1.24,25.41-1.6,12.87-.55,25.73-.68,38.62-.48,4.34.08,8.76.15,13.21.26,14.05.35,28.46,1.08,42.3,3.26,2.52.41,5,.86,7.51,1.38,3.33.68,6.64,1.46,9.88,2.37.13,0,.24.06.37.09s.45.13.67.21a55.24,55.24,0,0,1,8.79,3.41c.59.28,1.17.57,1.74.91,28.62,15.13,42.47,52.92,50.39,83.76A9,9,0,0,1,434,559.26Z"/><path class="cls-5" d="M275.28,512a95.94,95.94,0,0,1-26.54-2.54,78.15,78.15,0,0,1-18.65-7.14s0,0,0,0a67.81,67.81,0,0,1-19-15.06,61,61,0,0,1-10.8-17.68c-.57-1.46-1.09-2.94-1.54-4.45a75.58,75.58,0,0,1,9.8-4.19,6.14,6.14,0,0,1,.48-1c0,.26.05.5.09.76a54.3,54.3,0,0,0,7.62,21.79,61.59,61.59,0,0,0,22.46,18.34c11.18,5.4,23.7,7.62,36.07,7.45C277.67,508.26,277.65,511.9,275.28,512Z"/><path class="cls-5" d="M392.29,464.28c-.05.13-.09.28-.13.41a48.56,48.56,0,0,1-1.65,4.85,61.62,61.62,0,0,1-10.79,17.68A68.3,68.3,0,0,1,357.26,504s0,0-.07,0a78.54,78.54,0,0,1-15.12,5.36A95.87,95.87,0,0,1,315.54,512c-2.38-.09-2.39-3.73,0-3.71,12.35.17,24.88-2,36-7.45A61.39,61.39,0,0,0,374,482.49a54.64,54.64,0,0,0,7.55-21.09l.17-1.44a55.24,55.24,0,0,1,8.79,3.41C391.14,463.65,391.72,463.94,392.29,464.28Z"/><path class="cls-1" d="M318,465.31v.16a66.39,66.39,0,0,1-1.77,11.33c-3.16,13.95-9.56,19.1-17.5,20.6-17.8,3.34-30.48-92.74-30.48-92.74a18.67,18.67,0,0,1,19.39-17.88l15,.63a18.68,18.68,0,0,1,17.85,19.43Z"/><path class="cls-6" d="M318,465.31c-.7,0-1.36-.08-2-.14-23.34-2.46-40.3-23.55-39.31-47l.49-11.86c.36-8.37,9-14.79,19.25-14.36l14.95.63a21.81,21.81,0,0,1,3.82.48,18.56,18.56,0,0,1,5.26,13.78Z"/><path class="cls-1" d="M364.51,379.78c-3.39,12.78-12.84,16.57-21.66,18.82a2.71,2.71,0,0,1-.32.07c-1.26,2.42-2.64,4.82-4.15,7.17q-1.41,2.22-3,4.34a98.06,98.06,0,0,1-10.21,12c-7.24,8.15-16.39,14-26.63,16.19-.3,0-.63.11-.92.17-.61.1-1.17.28-1.78.35-.42.07-.81,0-1.2.09s-.68,0-1,.06c-.81,0-1.6,0-2.4,0a19,19,0,0,1-2.34-.24c-.34,0-.68-.09-1-.13s-.82-.08-1.23-.17c-.58-.14-1.14-.34-1.72-.52-.3-.07-.62-.16-.9-.25-10-3-18.61-9.6-25.15-18.33a87.26,87.26,0,0,1-7.24-9.72c-.23-.31-.43-.64-.61-.94-1.09-1.68-2.1-3.38-3.05-5.1a93.32,93.32,0,0,1-4.39-9.08c-.28-.09-.6-.2-.89-.32-8.4-2.95-17.19-7.58-19.41-20.33-1.84-10.38,1.43-23.86,9.71-24.25a11.91,11.91,0,0,1,6.18,1.7,17.23,17.23,0,0,1,1.73,1c0-.09.05-.17.07-.26,4.36-17,13.81-34.83,25-46.92a37,37,0,0,1,15.88-12.16,25.41,25.41,0,0,1,9.34-2.47,55.13,55.13,0,0,1,6.3,0,53.75,53.75,0,0,1,6.28.48,26.06,26.06,0,0,1,9.1,3.25,36.81,36.81,0,0,1,14.79,13.43c9.66,12.36,17.27,29.77,20.52,46.3v0c.19.92.37,1.86.52,2.78.2-.1.36-.21.57-.31h0a13.15,13.15,0,0,1,7.53-1.77C365.11,355.88,367.23,369.58,364.51,379.78Z"/><g class="cls-7"><path class="cls-8" d="M350.9,357.59a8.59,8.59,0,0,1-.23,6.88,7.19,7.19,0,0,1-1.64,2.17,8,8,0,0,1-.42,2.11,13.75,13.75,0,0,1-2.86,4.83,8.92,8.92,0,0,1-1.77,3.63,8.14,8.14,0,0,1-4,2.71.58.58,0,0,1-.22,0,4.45,4.45,0,0,1-3.28,3.33l-.37.32v-.26l-.1,0c-2.07.09-3.21-1.75-3.25-3.64a7.71,7.71,0,0,1,1.05-3.7,5.26,5.26,0,0,1-.25-4.52,4.4,4.4,0,0,1-.7-.86,6.34,6.34,0,0,1-.06-6.28l.11-.15a5.23,5.23,0,0,1-.75-1.2,7.32,7.32,0,0,1,0-5.35,6.31,6.31,0,0,1-2.25-5.51,7.12,7.12,0,0,1,.78-2.61,9.55,9.55,0,0,1-4.22-.8,5.54,5.54,0,0,1-1.83-1.36l-1,.19a21.62,21.62,0,0,1-4.62,0c-1.59-.16-3.34-.32-4.59-1.41a13.63,13.63,0,0,1-10.51-.16,4.79,4.79,0,0,1-.68.34c-3,1.27-6.92,1.44-9.73-.43a4.17,4.17,0,0,1-.81-.71c-.36.13-.72.27-1.09.37a14.13,14.13,0,0,1-8.72-.36,8.51,8.51,0,0,1-1.78-1,9.51,9.51,0,0,1-4.41,1.46,9.32,9.32,0,0,1-6.48-2.17,11.26,11.26,0,0,1-6.87,3.44,8.88,8.88,0,0,1-3.12-.18,9.92,9.92,0,0,1-4,4.53,10.21,10.21,0,0,1-.12,4.5,9.51,9.51,0,0,1-1,2.42,8.22,8.22,0,0,1,1,4.92,9,9,0,0,1-1.89,4.72,6.89,6.89,0,0,1,1.51,5,7.29,7.29,0,0,1-1.75,4,4.85,4.85,0,0,1,1.55,3,5,5,0,0,1-2.85,4.95,5.35,5.35,0,0,1-5.55-.53,6.49,6.49,0,0,1-2.55-5.27c0-.21,0-.43.07-.63a4.58,4.58,0,0,1-1.86-3.65,6.67,6.67,0,0,1-1.65-1.78,7.12,7.12,0,0,1-.86-1.89l-.32-.12a5.9,5.9,0,0,1-3.21-5.88,6.28,6.28,0,0,1,.95-2.5,5.38,5.38,0,0,1-2.24-3.77,6.71,6.71,0,0,1,1-4.15c-.14-.28-.28-.56-.4-.84-.86-2-1.59-4.16-1-6.35a4.36,4.36,0,0,1,1.43-2.26c-.16-.17-.32-.31-.47-.49a10,10,0,0,1-2.24-4.69,6.61,6.61,0,0,1,1-5.18,4,4,0,0,1,1.47-1.18,8.87,8.87,0,0,1-.19-1.57,6.78,6.78,0,0,1,1.81-5,4,4,0,0,1,1.54-1.06,8.84,8.84,0,0,1,0-6,6,6,0,0,1,2.42-3.08c0-.38,0-.75,0-1.11a7.64,7.64,0,0,1,2.77-5.21,5.57,5.57,0,0,1,2.34-1,12.67,12.67,0,0,1,5.46-7.17,9.51,9.51,0,0,1,5.82-4.66c.21,0,.43-.05.65-.07a22.33,22.33,0,0,1,1.89-1.88,14.51,14.51,0,0,1,4.56-3.17,7.3,7.3,0,0,1,3.34-.46,17.11,17.11,0,0,1,1.61-1,15.62,15.62,0,0,1,5.44-2.14,7.45,7.45,0,0,1,2.06.08,13.8,13.8,0,0,1,1.31-.79,12.43,12.43,0,0,1,10.67-.34c.19.08.37.18.55.27a13.3,13.3,0,0,1,1.5-.52,12.07,12.07,0,0,1,6.21-.49,7,7,0,0,1,.73.25,5.92,5.92,0,0,1,1.62-.17,16,16,0,0,1,5.42,1.26,8.6,8.6,0,0,1,2.16,1.2,7,7,0,0,1,2.32-.1,7.8,7.8,0,0,1,5.5,3.27,5.07,5.07,0,0,1,2-.63,5.25,5.25,0,0,1,5.66,3.49,6.49,6.49,0,0,1,3,.36,6.12,6.12,0,0,1,3.56,3.47c0,.09,0,.17.05.26a14.46,14.46,0,0,1,4.23,1.66,6.68,6.68,0,0,1,3.7,4.77.26.26,0,0,0,0,.15,7.61,7.61,0,0,1,3.07,2.16,8.14,8.14,0,0,1,1.74,5.49,9.69,9.69,0,0,1,3.09,2.14,7.79,7.79,0,0,1,2.34,5.37,5.23,5.23,0,0,1-.61,2.53,5.5,5.5,0,0,1,1.56,1.82,5.34,5.34,0,0,1,.54,3,4.46,4.46,0,0,1,1.67.84c2.87,2.32,3,6.78,1.65,10,.19.25.36.51.54.78a9.85,9.85,0,0,1,1.83,6.22,6,6,0,0,1-2.21,4A8.86,8.86,0,0,1,350.9,357.59Z"/></g><path class="cls-9" d="M359.77,367a19.92,19.92,0,0,0-11.91,23.37.93.93,0,0,0,1.79-.5,17.35,17.35,0,0,1-.54-4.68l.05,0c2.17-2.63,6.14-2.14,9.13-2.9a.93.93,0,0,0-.49-1.79c-2.76.7-6,.56-8.45,2.1a18,18,0,0,1,10.91-13.78C361.35,368.31,360.88,366.52,359.77,367Z"/><path class="cls-9" d="M231.4,363.63A19.91,19.91,0,0,1,243.31,387a.93.93,0,0,1-1.79-.49,17.44,17.44,0,0,0,.54-4.68s0,0-.05,0c-2.17-2.62-6.14-2.14-9.13-2.89a.93.93,0,0,1,.5-1.79c2.75.7,6,.55,8.44,2.09a17.92,17.92,0,0,0-10.91-13.77C229.82,365,230.29,363.18,231.4,363.63Z"/><path class="cls-9" d="M308.86,390.08c-1.67-8.84-3.63-17.63-5.45-26.44-.33-1.61-2.9-1.43-2.57.2l4.44,21.56c.59,2.85,2.32,7.19.68,9.92-1.79,3-5.57,2.84-8.28,1.37-1.46-.8-2.57,1.53-1.12,2.32a9,9,0,0,0,9.37,0C309,396.92,309.5,393.5,308.86,390.08Z"/><path class="cls-10" d="M267.92,359.75l0,0a1.46,1.46,0,0,0-.48-.1,18.27,18.27,0,0,1,13.92-10.73,5.43,5.43,0,0,1,2.86.19,2.34,2.34,0,0,1,1.51,2.25c-.12,1.07-1.16,1.77-2.15,2.2a28.86,28.86,0,0,1-6.45,1.6,19.29,19.29,0,0,0-6.35,1.94A8.32,8.32,0,0,0,267.92,359.75Z"/><path class="cls-10" d="M316.37,349.13a5.44,5.44,0,0,1,2.86,0,18.27,18.27,0,0,1,13.37,12.51,9.15,9.15,0,0,0-1.85-2.34l-.14-.09a8.2,8.2,0,0,0-1.4-1.17,19.09,19.09,0,0,0-6.19-2.38,28.74,28.74,0,0,1-6.33-2.05c-.95-.5-1.94-1.27-2-2.35A2.33,2.33,0,0,1,316.37,349.13Z"/><path class="cls-9" d="M282,399.93a23.76,23.76,0,0,0,21.65,5.86c2.19-.51,2.88,2.9.7,3.41a27.33,27.33,0,0,1-25-7C277.73,400.67,280.37,398.39,282,399.93Z"/><path class="cls-10" d="M276.13,369.73c0,3.22,1.84,5.85,4,5.87s4-2.55,3.94-5.77-1.83-5.85-4-5.88S276.1,366.51,276.13,369.73Z"/><path class="cls-10" d="M315.76,371.83c0,3.22,1.83,5.85,4,5.87s4-2.55,3.94-5.77-1.84-5.85-4-5.88S315.73,368.61,315.76,371.83Z"/><path class="cls-5" d="M305.62,525.74c-36.65-1.37-73.38-1.35-110,1.49-1.7.13-3.38.26-5.08.42a129.6,129.6,0,0,0-1.32,31.61H400.11l1-27.67C367.61,529.06,339.22,527,305.62,525.74Z"/><path class="cls-3" d="M331,440.08c0,6.49-.09,24.49-.57,25.63-5.31,12.38-31.14,36.75-31.47,37.44a1.16,1.16,0,0,1-1.5.44,1.14,1.14,0,0,1-1.49-.44c-.33-.69-26.85-28.15-32.15-40.54-.49-1.11-.11-17,.05-22.74l4.82-.2.28-.11a106.66,106.66,0,0,1,27.34,51.77c.14.56.31,1.08.46,1.64a1.18,1.18,0,0,1,0,.53c.24,1.3.48,2.62.69,3.94.22-1.32.44-2.64.7-3.94a1.18,1.18,0,0,1,0-.53c.15-.56.32-1.08.46-1.64a108.59,108.59,0,0,1,19.44-42.52,111.56,111.56,0,0,1,7.6-8.95Z"/><path class="cls-11" d="M276.24,504c-1.77-1.3-4.46-2.13-5.47-4.23-1.62-3.39,1.83-6.34,4.47-7.73,1.05-.55.12-2.15-.94-1.6-2.29,1.21-4.46,2.91-5.35,5.43a6,6,0,0,0,1.34,6.34c1.45,1.45,3.42,2.17,5,3.4,2.19,1.67,2.29,4.2.88,6.47-1.51,2.42-4.22,3.81-6.35,5.61a19.05,19.05,0,0,0-4.79,6.05,15.4,15.4,0,0,0,.53,15.16c1.77,2.69,4.44,4.7,6,7.55,1.36,2.49,1.4,6.76-2.15,7.35-1.18.19-.68,2,.49,1.79a5.58,5.58,0,0,0,4.31-4.46c.57-2.6-.58-5.2-2.11-7.26-1.75-2.37-4.12-4.28-5.53-6.91a13.12,13.12,0,0,1-1.2-8.51,15.9,15.9,0,0,1,3.68-7.39c1.85-2.13,4.25-3.55,6.37-5.38a9.45,9.45,0,0,0,3.6-6.43A6.05,6.05,0,0,0,276.24,504Z"/><path class="cls-10" d="M276.57,489.68a6.91,6.91,0,0,0-4.45-2.28.93.93,0,0,0-.93.92,1,1,0,0,0,.93.93c-.16,0,.14,0,.14,0l.24,0,.47.13.23.08.16.07a4,4,0,0,1,.42.2,4.64,4.64,0,0,1,.42.25l.24.16.09.06a6.21,6.21,0,0,1,.73.72,5.19,5.19,0,0,1,.89,1.57,6.07,6.07,0,0,1,.25,1c0,.05,0,.18,0,.18a1.27,1.27,0,0,0,0,.2c0,.21,0,.41,0,.62a.93.93,0,0,0,.93.92,1,1,0,0,0,.93-.92A7,7,0,0,0,276.57,489.68Z"/><path class="cls-11" d="M318.72,504c1.78-1.3,4.46-2.13,5.47-4.23,1.62-3.39-1.83-6.34-4.46-7.73-1.06-.55-.12-2.15.93-1.6,2.3,1.21,4.46,2.91,5.35,5.43a6,6,0,0,1-1.34,6.34c-1.45,1.45-3.42,2.17-5,3.4-2.19,1.67-2.29,4.2-.87,6.47,1.51,2.42,4.22,3.81,6.34,5.61a19.05,19.05,0,0,1,4.79,6.05,15.43,15.43,0,0,1-.52,15.16c-1.77,2.69-4.44,4.7-6,7.55-1.36,2.49-1.4,6.76,2.16,7.35,1.17.19.67,2-.5,1.79a5.59,5.59,0,0,1-4.31-4.46c-.56-2.6.59-5.2,2.11-7.26,1.75-2.37,4.13-4.28,5.53-6.91a13.12,13.12,0,0,0,1.2-8.51,15.81,15.81,0,0,0-3.68-7.39c-1.85-2.13-4.25-3.55-6.36-5.38a9.46,9.46,0,0,1-3.61-6.43A6.05,6.05,0,0,1,318.72,504Z"/><path class="cls-10" d="M318.39,489.68a6.91,6.91,0,0,1,4.46-2.28.93.93,0,0,1,0,1.85c.15,0-.14,0-.14,0l-.24,0-.47.13-.23.08-.17.07a4,4,0,0,0-.42.2,4.64,4.64,0,0,0-.42.25l-.24.16-.08.06a5.6,5.6,0,0,0-.74.72,5.19,5.19,0,0,0-.89,1.57,6.07,6.07,0,0,0-.25,1c0,.05,0,.18,0,.18a1.41,1.41,0,0,0,0,.2c0,.21,0,.41,0,.62a.93.93,0,0,1-1.85,0A6.91,6.91,0,0,1,318.39,489.68Z"/><path class="cls-12" d="M192.21,537.94c-.28,7.13-.23,14.22.1,21.32H189c-1-21.47.34-42.84,7.15-63.77a1.69,1.69,0,0,1,2.55-.86h0v0a1.38,1.38,0,0,1,.59,1.7A155.12,155.12,0,0,0,192.21,537.94Z"/><path class="cls-12" d="M401.61,551.93v.16c-.05,2.4-.16,4.77-.26,7.17H398c.34-7.1.41-14.19.1-21.32A154.73,154.73,0,0,0,391,496.36c-.65-2,2.56-2.86,3.2-.87C400.24,514,402,532.94,401.61,551.93Z"/><path class="cls-5" d="M254.32,488.76a1.86,1.86,0,0,1-2.54.66c-3.61-2.31-7.14-4.76-10.53-7.4-8.53-6.6-16.19-14.7-21.09-24.31-.57-1.15-1.11-2.31-1.61-3.5a10.67,10.67,0,0,0,1.39-.43c1.93-.7,3.77-2.39,3.62-4.43a7.69,7.69,0,0,0-.48-1.84,1.12,1.12,0,0,1,.42.49c1.28,2.83,2.67,5.62,4.19,8.32l.84,1.47a98.42,98.42,0,0,0,25.13,28.44A1.9,1.9,0,0,1,254.32,488.76Z"/><path class="cls-5" d="M372.17,454.39c-.41,1-.85,1.95-1.33,2.9-4.88,9.79-12.61,18-21.27,24.73-3.4,2.64-6.94,5.09-10.56,7.4a1.88,1.88,0,0,1-2.54-.66,1.9,1.9,0,0,1,.67-2.53,98.56,98.56,0,0,0,25.13-28.44c.37-.61.72-1.24,1.06-1.88,1.09-1.92,2.11-3.91,3.06-5.91.22,1.76,1.87,3.15,3.57,3.78A14.83,14.83,0,0,0,372.17,454.39Z"/><path class="cls-13" d="M355.9,325.28a36.29,36.29,0,0,0-8.44-17,25.62,25.62,0,0,0-17.67-8.34c.21-3.24-3.31-5.84-6.8-6.13s-6.85,1.08-10,2.42a5,5,0,0,0-.3-6.72,6,6,0,0,0-7.24-.56c-.16-3.41-3.84-6-7.51-6.29s-7.23,1.17-10.41,2.89-6.22,3.76-9.72,4.82c-4.76,1.45-10,1-14.76,2.37-7.29,2.11-12.35,8.08-16.93,13.74-7.27,9-14.79,18.5-16.27,29.63q3-3.75,6.05-7.49a31.21,31.21,0,0,1-7.65,18.51,14.22,14.22,0,0,0,6.88-3c-5.11,7.67-2.56,18.88,5.45,24a64.15,64.15,0,0,0,4.52,25,.43.43,0,0,0,.82-.18,72.16,72.16,0,0,1-.79-16.2,32.9,32.9,0,0,1,3.16-11.68,18.32,18.32,0,0,0,8.34-1.18l-2.48,3.62a57,57,0,0,0,27.93-23.75c1.22,7.95-9.2,16.44-9.2,16.44,11.17-4.93,13.89-7.65,20.27-17.47.45,11-9.85,22.6-9.85,22.6a53.78,53.78,0,0,0,34.32-32.95c12,6.8,19.87,19.82,19.3,32.93a28.54,28.54,0,0,0-.11-16.1A76.75,76.75,0,0,1,344.41,393a.39.39,0,0,0,.76.13q2.65-9.42,5.3-18.86C355,358.25,359.51,341.52,355.9,325.28Z"/><path class="cls-10" d="M236.79,356.05c2.46,11.63,5.11,23.72,12.33,33.45.53.7,1.71,0,1.18-.71-7.15-9.64-9.75-21.61-12.19-33.12-.18-.87-1.51-.49-1.32.38Z"/><path class="cls-10" d="M355.84,355.76c-3.6,11.14-7.4,22.74-15.47,31.54-.6.65.38,1.61,1,1,8.23-9,12.14-20.77,15.81-32.15.27-.84-1.06-1.19-1.33-.35Z"/><path class="cls-10" d="M346.68,406c-1,1.57-2.14,3.13-3.29,4.64A104.41,104.41,0,0,1,332,423.48c-8,8.73-18.24,15-29.65,17.31-.34,0-.7.12-1,.18-.69.1-1.31.29-2,.37-.47.08-.9,0-1.34.09s-.76,0-1.14.06c-.9,0-1.78.05-2.67,0a24,24,0,0,1-2.62-.26l-1.12-.14c-.46-.08-.91-.09-1.37-.19-.65-.16-1.27-.37-1.92-.56l-1-.27c-11.18-3.22-20.78-10.34-28.09-19.71A95.09,95.09,0,0,1,250,409.93a9.93,9.93,0,0,1-.68-1q-1.83-2.7-3.41-5.48L245.8,393a8.26,8.26,0,0,1,2.27-5.81,8.46,8.46,0,0,1,4.11-2.35c27.59-6.6,56.94-5.88,87.38-.81a8.1,8.1,0,0,1,3.54,1.51,6.22,6.22,0,0,1,1.46,1.39,8.2,8.2,0,0,1,1.94,5.2Z"/><path class="cls-11" d="M343.38,410.67A102.6,102.6,0,0,1,332,423.47l-.24.24A60,60,0,0,1,318,434.81a51.71,51.71,0,0,1-15.65,6c-.34,0-.7.12-1,.18-.7.1-1.32.28-2,.38-.44.06-.86,0-1.28.08H298c-.4,0-.76,0-1.14.06-.89,0-1.77,0-2.66,0a24.37,24.37,0,0,1-2.63-.26l-1.13-.14c-.44-.08-.9-.1-1.35-.2-.66-.14-1.28-.35-1.93-.55-.34-.08-.68-.18-1-.28a49,49,0,0,1-5.15-1.81,57,57,0,0,1-22.94-17.9c-1.49-1.67-2.93-3.4-4.34-5.21s-2.54-3.44-3.74-5.23a7.87,7.87,0,0,1-.69-1l-.12-9.76,0-1.55v-.28a9.3,9.3,0,0,1,1.57-5.43,8.09,8.09,0,0,1,1.37-1.59,7.75,7.75,0,0,1,3-1.65c3.13-.86,6.27-1.57,9.45-2.19,1.11-.22,2.21-.44,3.34-.62a11.54,11.54,0,0,1,1.33-.23c1.69-.28,3.42-.52,5.17-.76,5.19-.64,10.4-1,15.71-1.15h0c.52,0,1,0,1.53,0s1,0,1.55,0c1.83,0,3.66,0,5.51,0l0,0c2.71.08,5.43.2,8.13.37l.9.06c.73,0,1.45.1,2.19.16,3.59.28,7.17.66,10.81,1.14.72.1,1.41.16,2.13.25.54.08,1.05.16,1.57.22,2.63.4,5.27.82,7.92,1.32,1.43.23,2.86.47,4.29.75a5.93,5.93,0,0,1,1.73.6l.08,0a5.13,5.13,0,0,1,.8.42,8.55,8.55,0,0,1,1,.77,8.45,8.45,0,0,1,1.31,1.53,9.27,9.27,0,0,1,1.25,2.79,6.23,6.23,0,0,1,.28,1.39,6.43,6.43,0,0,1,.08,1.07Z"/><path class="cls-14" d="M306,398.68c.42,2.6-2.17,4.89-4.79,5.25s-5.21-.6-7.76-1.25-5.45-1-7.67.45c-2,1.28-3,3.66-4.76,5.23a10.69,10.69,0,0,1-6.56,2.25,10.89,10.89,0,0,1-5.39-.93,5.71,5.71,0,0,1-3.2-4.22c-.26-2.13,1-4.12,1.85-6.07s1.21-4.57-.38-6c-1.15-1-2.9-1-4.41-.66a19,19,0,0,1-4.53.92,6.47,6.47,0,0,1-5.51-3.92,6.72,6.72,0,0,1,2.26-1.07c3.13-.86,6.27-1.57,9.45-2.19,1.11-.22,2.21-.44,3.34-.62a11.54,11.54,0,0,1,1.33-.23c1.69-.28,3.42-.52,5.17-.76,5.19-.64,10.4-1,15.71-1.15h0c.52,0,1,0,1.53,0s1,0,1.55,0c1.83,0,3.66,0,5.51,0l0,0c2.71.08,5.43.2,8.13.37-.53.64-1.09,1.28-1.63,1.91-1.71,2.07-3.2,4.83-2.3,7.38C303.65,395.26,305.64,396.65,306,398.68Z"/><path class="cls-3" d="M343.38,410.67A102.6,102.6,0,0,1,332,423.47l-.24.24a17.7,17.7,0,0,1-6.17-.71,9.07,9.07,0,0,1-3.51-1.89,4.56,4.56,0,0,1-1.52-3.6c.16-1.93,1.87-3.8,1.14-5.59-.64-1.59-2.69-1.95-4.4-2s-3.72-.27-4.53-1.79a3,3,0,0,1,0-2.72,6,6,0,0,1,1.87-2.07,11.24,11.24,0,0,1,5.05-2.07c1.43-.21,2.9-.14,4.33-.31A6.3,6.3,0,0,0,328,399.3a3.23,3.23,0,0,0,.52-4c-.7-.92-2.05-1.41-2.25-2.57s.9-2,1.91-2.52a18.46,18.46,0,0,1,10.3-1.65,5.13,5.13,0,0,1,.8.42,8.55,8.55,0,0,1,1,.77,8.45,8.45,0,0,1,1.31,1.53,9.27,9.27,0,0,1,1.25,2.79,6.23,6.23,0,0,1,.28,1.39,6.43,6.43,0,0,1,.08,1.07Z"/><path class="cls-5" d="M291,423.28c-.92,1.75-2.85,2.68-4.66,3.52s-3.4,1.55-5.11,2.34c-1.15.52-2.44,1.18-2.8,2.41a3.57,3.57,0,0,0,.68,3,16.74,16.74,0,0,1,1.69,2.65,3.87,3.87,0,0,1,.29,1.11,57,57,0,0,1-22.94-17.9c-1.49-1.67-2.93-3.4-4.34-5.21a17,17,0,0,1,7.82-3.34c2.4-.36,5.21,0,6.72,1.89.87,1.08,1.19,2.53,2.09,3.58a5.81,5.81,0,0,0,5.29,1.57,24.62,24.62,0,0,0,5.44-1.91,10.64,10.64,0,0,1,5.61-1,5.68,5.68,0,0,1,4,2.62A4.93,4.93,0,0,1,291,423.28Z"/><path class="cls-5" d="M317.81,431a3.34,3.34,0,0,0-.3,3.14,2.81,2.81,0,0,0,.52.66,51.71,51.71,0,0,1-15.65,6c-.34,0-.7.12-1,.18-.7.1-1.32.28-2,.38-.44.06-.86,0-1.28.08a4,4,0,0,0-.59-1.25c-1.47-2.13-4.95-1.91-6.58-3.92-1.36-1.63-.9-4.17.37-5.87s3.17-2.74,4.94-3.91,3.52-2.57,4.21-4.56a6.25,6.25,0,0,0-.81-5.54,8.29,8.29,0,0,0-4.72-3.21c-.87-.23-2-.61-2-1.51,0-.57.54-1,1-1.25a17,17,0,0,1,13-1.65c1.63.46,3.42,1.45,3.6,3.12.12,1.06-.45,2.07-.47,3.14a3.5,3.5,0,0,0,.25,1.3,4.42,4.42,0,0,0,3.78,2.58,13.75,13.75,0,0,1,1.81.34,6.61,6.61,0,0,1,4.77,4.35,6.15,6.15,0,0,1-.95,4.78C319.12,429.28,318.35,430.08,317.81,431Z"/><path class="cls-15" d="M343.32,411.24A103.6,103.6,0,0,1,332,424.06c-8.05,8.73-18.24,15-29.65,17.31-.34,0-.7.12-1,.18-.68.1-1.3.29-2,.37-.46.08-.89,0-1.34.09s-.75,0-1.13.06c-.9,0-1.78.05-2.67,0a24,24,0,0,1-2.62-.26l-1.12-.14c-.46-.08-.92-.09-1.37-.19-.65-.15-1.27-.37-1.92-.56l-1-.27C275,437.45,265.35,430.33,258,421A95.09,95.09,0,0,1,250,410.51c17.74,4.63,66.23,13.63,88.41-21.4a5.61,5.61,0,0,1,.87.47,7.39,7.39,0,0,1,1,.77,7.52,7.52,0,0,1,1.31,1.54,9.41,9.41,0,0,1,1.61,5.24Z"/><g class="cls-16"><path class="cls-11" d="M306.4,304.48A21.17,21.17,0,0,1,313,312a23.12,23.12,0,0,1,1.29,19.42,20.63,20.63,0,0,1-5.6,8.22,47.58,47.58,0,0,0,2.8-8.93A34.07,34.07,0,0,0,310.36,313,48.8,48.8,0,0,0,306.4,304.48Z"/></g><g class="cls-16"><path class="cls-11" d="M302,308.08a23.75,23.75,0,0,1,.49,8.77,31.5,31.5,0,0,1-2.29,8.58,32.65,32.65,0,0,1-4.65,7.71,26.14,26.14,0,0,1-6.81,6.05c1.51-2.58,3-5,4.35-7.5s2.55-5,3.65-7.54,2.06-5.16,2.91-7.83S301.17,310.93,302,308.08Z"/></g><g class="cls-16"><path class="cls-11" d="M290.57,311.21a47.72,47.72,0,0,1-3.28,11.55,63.49,63.49,0,0,1-5.74,10.71,65.38,65.38,0,0,1-7.76,9.54,51.51,51.51,0,0,1-9.65,7.83l7.39-9.54c2.38-3.18,4.71-6.37,6.87-9.67s4.25-6.61,6.26-10Z"/></g><g class="cls-16"><path class="cls-11" d="M290,303c-5.58,3.57-11.19,7-16.5,10.73A101.94,101.94,0,0,0,258.73,326a62,62,0,0,0-10.93,15.1,46.3,46.3,0,0,0-5,17.83,34.16,34.16,0,0,1,2.31-18.88A51.21,51.21,0,0,1,256,323.66a76.37,76.37,0,0,1,15.83-12.18A109.84,109.84,0,0,1,290,303Z"/></g><g class="cls-16"><path class="cls-11" d="M318.52,310.24a22,22,0,0,1,8.25,3.72,26.65,26.65,0,0,1,6.36,6.31,25.12,25.12,0,0,1,3.8,7.91,18.93,18.93,0,0,1,.51,8.55,78.26,78.26,0,0,0-3.24-7.64A52.75,52.75,0,0,0,330,322.2a54.7,54.7,0,0,0-5.21-6.24A84.29,84.29,0,0,0,318.52,310.24Z"/></g><g class="cls-16"><path class="cls-11" d="M332.48,309.18a26.42,26.42,0,0,1,13.34,8.67,34.56,34.56,0,0,1,7.11,14,46.25,46.25,0,0,1,1,15.3,65.28,65.28,0,0,1-3.17,14.82c.08-5,.36-10,.27-14.91a64.21,64.21,0,0,0-1.71-14.43,40.36,40.36,0,0,0-5.84-13.17A34,34,0,0,0,332.48,309.18Z"/></g><g class="cls-16"><path class="cls-11" d="M275.34,290.76a37.31,37.31,0,0,1,5.37-1c1.74-.19,3.46-.32,5.18-.4s3.45-.1,5.2-.06a34.73,34.73,0,0,1,5.44.48,16.81,16.81,0,0,1-5,2.22,24.76,24.76,0,0,1-5.41.83,25.08,25.08,0,0,1-5.47-.35A17.45,17.45,0,0,1,275.34,290.76Z"/></g><g class="cls-16"><path class="cls-11" d="M283.2,296.44a64.49,64.49,0,0,0-12.74,4.42,49.84,49.84,0,0,0-10.88,7,47.53,47.53,0,0,0-8.49,9.48,56.17,56.17,0,0,0-5.89,11.44,28.88,28.88,0,0,1,3.35-12.76,35.55,35.55,0,0,1,8.53-10.72,38.24,38.24,0,0,1,12.22-6.94A34.75,34.75,0,0,1,283.2,296.44Z"/></g><g class="cls-16"><path class="cls-11" d="M267.38,330.43a58.28,58.28,0,0,1-4.13,5.71c-1.43,1.8-2.87,3.57-4.36,5.3s-3,3.46-4.55,5.17a62.81,62.81,0,0,1-5,5,23.89,23.89,0,0,1,2.62-6.55,36,36,0,0,1,4-5.81,38.67,38.67,0,0,1,5.16-5A27.53,27.53,0,0,1,267.38,330.43Z"/></g></g></g></svg>