<svg width="172" height="50" viewBox="0 0 172 50" fill="none" xmlns="http://www.w3.org/2000/svg">
<path d="M46.4311 30.8888C43.6698 30.8888 41.0825 29.7258 38.7318 27.8325L39.3042 25.1598L39.3291 25.0608C39.8388 22.2151 41.4558 17.4385 46.4311 17.4385C50.1622 17.4385 53.1972 20.4578 53.1972 24.1698C53.1846 27.8695 50.15 30.8888 46.4311 30.8888ZM46.4311 10.6208C40.0751 10.6208 35.1499 14.7289 33.1476 21.4849C30.0878 16.9189 27.7742 11.4375 26.4186 6.82202H19.5778V24.5286C19.5778 28.018 16.717 30.8637 13.2095 30.8637C9.702 30.8637 6.84157 28.018 6.84157 24.5286V6.82202H7.80156e-05V24.5286C-0.0248098 31.7798 5.90811 37.7313 13.1966 37.7313C20.4854 37.7313 26.4183 31.7798 26.4183 24.5286V21.5591C27.749 24.3183 29.3783 27.1023 31.356 29.5772L27.1643 49.1768H34.167L37.2017 34.9596C39.8633 36.6548 42.9232 37.7191 46.4307 37.7191C53.9306 37.7191 60.0377 31.6065 60.0377 24.145C60.0377 16.6961 53.9306 10.6208 46.4307 10.6208H46.4311Z" fill="#3C19FE"/>
<path d="M83.7649 12.268L88.1476 29.4195L92.975 12.268H98.728L91.3084 37.0545H85.5551L80.9997 19.7949L76.4563 37.0424H70.7033L63.283 12.2562H69.0363L73.8634 29.4077L78.2461 12.2562H83.7646V12.2683L83.7649 12.268ZM112.493 11.5249C105.024 11.5249 98.975 17.4097 98.975 24.6491C98.975 31.9007 105.037 37.7737 112.493 37.7737C119.963 37.7737 126.024 31.9007 126.024 24.6491C126.024 17.3979 119.963 11.5249 112.493 11.5249ZM112.493 32.38C108.099 32.38 104.543 28.928 104.543 24.6613C104.543 20.3942 108.111 16.9425 112.493 16.9425C116.889 16.9425 120.444 20.3942 120.444 24.6613C120.444 28.9162 116.889 32.38 112.493 32.38ZM142.457 17.8174C138.593 17.8174 135.469 20.8617 135.469 24.6011V37.0424H129.679V12.268H135.469V16.0794C135.469 16.0794 137.938 12.2559 143.012 12.2559H144.79V17.8174H142.457ZM161.889 23.6904C166 21.437 168.79 17.158 168.79 12.2559H163C163 16.3909 159.543 19.7469 155.284 19.7469H154.506V0.306152H148.716V37.042H154.506V25.3683H155.198C155.765 25.3683 156.506 25.728 156.84 26.1712L165.062 37.0424H172L161.889 23.6904Z" fill="#3C19FE"/>
</svg>
